{
  "accessors": [
    {
      "bufferView": 2,
      "componentType": 5126,
      "count": 18377,
      "max": [
        597.0501708984375,
        11060.0,
        597.050048828125
      ],
      "min": [
        -597.0501098632813,
        -1.0462805221322924e-05,
        -597.0501708984375
      ],
      "type": "VEC3"
    },
    {
      "bufferView": 2,
      "byteOffset": 220524,
      "componentType": 5126,
      "count": 18377,
      "max": [
        1.0,
        1.0,
        1.0
      ],
      "min": [
        -1.0,
        -1.0,
        -1.0
      ],
      "type": "VEC3"
    },
    {
      "bufferView": 1,
      "componentType": 5126,
      "count": 18377,
      "max": [
        0.9995925426483154,
        0.9988940954208374
      ],
      "min": [
        0.00432915985584259,
        0.0006051063537597656
      ],
      "type": "VEC2"
    },
    {
      "bufferView": 1,
      "byteOffset": 147016,
      "componentType": 5126,
      "count": 18377,
      "max": [
        0.9995925426483154,
        0.9988940954208374
      ],
      "min": [
        0.00432915985584259,
        0.0006051063537597656
      ],
      "type": "VEC2"
    },
    {
      "bufferView": 1,
      "byteOffset": 294032,
      "componentType": 5126,
      "count": 18377,
      "max": [
        0.9995925426483154,
        0.9988940954208374
      ],
      "min": [
        0.00432915985584259,
        0.0006051063537597656
      ],
      "type": "VEC2"
    },
    {
      "bufferView": 0,
      "componentType": 5125,
      "count": 78525,
      "type": "SCALAR"
    }
  ],
  "asset": {
    "extras": {
      "author": "Intelligent Education (https://sketchfab.com/intelligenteducation)",
      "license": "CC-BY-4.0 (http://creativecommons.org/licenses/by/4.0/)",
      "source": "https://sketchfab.com/3d-models/saturn-rocket-c095843eaf6a4d7a871b34ca948749db",
      "title": "Saturn Rocket"
    },
    "generator": "Sketchfab-12.65.0",
    "version": "2.0"
  },
  "bufferViews": [
    {
      "buffer": 0,
      "byteLength": 314100,
      "name": "floatBufferViews",
      "target": 34963
    },
    {
      "buffer": 0,
      "byteLength": 441048,
      "byteOffset": 314100,
      "byteStride": 8,
      "name": "floatBufferViews",
      "target": 34962
    },
    {
      "buffer": 0,
      "byteLength": 441048,
      "byteOffset": 755148,
      "byteStride": 12,
      "name": "floatBufferViews",
      "target": 34962
    }
  ],
  "buffers": [
    {
      "byteLength": 1196196,
      "uri": "scene.bin"
    }
  ],
  "images": [
    {
      "uri": "textures/Saturn_Rocket_baseColor.jpeg"
    }
  ],
  "materials": [
    {
      "doubleSided": true,
      "name": "Saturn_Rocket",
      "pbrMetallicRoughness": {
        "baseColorTexture": {
          "index": 0
        },
        "metallicFactor": 0.0,
        "roughnessFactor": 0.9207483816249483
      }
    }
  ],
  "meshes": [
    {
      "name": "Saturn_Rocket_model_Saturn_Rocket_0",
      "primitives": [
        {
          "attributes": {
            "NORMAL": 1,
            "POSITION": 0,
            "TEXCOORD_0": 2,
            "TEXCOORD_1": 3,
            "TEXCOORD_2": 4
          },
          "indices": 5,
          "material": 0,
          "mode": 4
        }
      ]
    }
  ],
  "nodes": [
    {
      "children": [
        1
      ],
      "matrix": [
        1.0,
        0.0,
        0.0,
        0.0,
        0.0,
        2.220446049250313e-16,
        -1.0,
        0.0,
        0.0,
        1.0,
        2.220446049250313e-16,
        0.0,
        0.0,
        0.0,
        0.0,
        1.0
      ],
      "name": "Sketchfab_model"
    },
    {
      "children": [
        2
      ],
      "matrix": [
        1.0,
        0.0,
        0.0,
        0.0,
        0.0,
        0.0,
        1.0,
        0.0,
        0.0,
        -1.0,
        0.0,
        0.0,
        0.0,
        0.0,
        0.0,
        1.0
      ],
      "name": "Saturn_Rocket.fbx"
    },
    {
      "children": [
        3
      ],
      "name": "RootNode"
    },
    {
      "children": [
        4
      ],
      "matrix": [
        0.009999999776482582,
        0.0,
        0.0,
        0.0,
        0.0,
        0.009999999776482582,
        0.0,
        0.0,
        0.0,
        0.0,
        0.009999999776482582,
        0.0,
        0.0,
        0.0,
        0.0,
        1.0
      ],
      "name": "Saturn_Rocket_model"
    },
    {
      "mesh": 0,
      "name": "Saturn_Rocket_model_Saturn_Rocket_0"
    }
  ],
  "samplers": [
    {
      "magFilter": 9729,
      "minFilter": 9987,
      "wrapS": 10497,
      "wrapT": 10497
    }
  ],
  "scene": 0,
  "scenes": [
    {
      "name": "Sketchfab_Scene",
      "nodes": [
        0
      ]
    }
  ],
  "textures": [
    {
      "sampler": 0,
      "source": 0
    }
  ]
}
