{
  "accessors": [
    {
      "bufferView": 2,
      "componentType": 5126,
      "count": 725,
      "max": [
        -9.813344955444336,
        -2.9756760597229004,
        14.739509582519531
      ],
      "min": [
        -13.900835037231445,
        -7.06316614151001,
        3.6930360794067383
      ],
      "type": "VEC3"
    },
    {
      "bufferView": 2,
      "byteOffset": 8700,
      "componentType": 5126,
      "count": 725,
      "max": [
        0.9997912645339966,
        0.9997912645339966,
        1.0
      ],
      "min": [
        -0.9997912645339966,
        -0.9997912645339966,
        -0.23505693674087524
      ],
      "type": "VEC3"
    },
    {
      "bufferView": 1,
      "componentType": 5126,
      "count": 725,
      "max": [
        0.65625,
        1.0
      ],
      "min": [
        0.34375,
        0.3125
      ],
      "type": "VEC2"
    },
    {
      "bufferView": 0,
      "componentType": 5125,
      "count": 3720,
      "type": "SCALAR"
    },
    {
      "bufferView": 2,
      "byteOffset": 17400,
      "componentType": 5126,
      "count": 1081,
      "max": [
        -9.94375228881836,
        -3.1060850620269775,
        3.6930360794067383
      ],
      "min": [
        -13.770425796508789,
        -6.932755947113037,
        1.8500640392303467
      ],
      "type": "VEC3"
    },
    {
      "bufferView": 2,
      "byteOffset": 30372,
      "componentType": 5126,
      "count": 1081,
      "max": [
        0.999745786190033,
        0.9997459053993225,
        0.927075982093811
      ],
      "min": [
        -0.9997460246086121,
        -0.9997459053993225,
        -1.0
      ],
      "type": "VEC3"
    },
    {
      "bufferView": 1,
      "byteOffset": 5800,
      "componentType": 5126,
      "count": 1081,
      "max": [
        0.65625,
        0.3125
      ],
      "min": [
        0.34375,
        -0.0
      ],
      "type": "VEC2"
    },
    {
      "bufferView": 0,
      "byteOffset": 14880,
      "componentType": 5125,
      "count": 3240,
      "type": "SCALAR"
    },
    {
      "bufferView": 2,
      "byteOffset": 43344,
      "componentType": 5126,
      "count": 2114,
      "max": [
        -9.537924766540527,
        -4.373334884643555,
        10.699341773986816
      ],
      "min": [
        -14.218405723571777,
        -7.179211139678955,
        5.4104461669921875
      ],
      "type": "VEC3"
    },
    {
      "bufferView": 2,
      "byteOffset": 68712,
      "componentType": 5126,
      "count": 2114,
      "max": [
        1.0,
        1.0,
        1.0
      ],
      "min": [
        -1.0,
        -1.0,
        -1.0
      ],
      "type": "VEC3"
    },
    {
      "bufferView": 1,
      "byteOffset": 14448,
      "componentType": 5126,
      "count": 2114,
      "max": [
        1.0,
        1.0
      ],
      "min": [
        0.0,
        0.0
      ],
      "type": "VEC2"
    },
    {
      "bufferView": 0,
      "byteOffset": 27840,
      "componentType": 5125,
      "count": 3780,
      "type": "SCALAR"
    },
    {
      "bufferView": 2,
      "byteOffset": 94080,
      "componentType": 5126,
      "count": 3080,
      "max": [
        -7.323028087615967,
        -0.8943390250205994,
        17.366531372070313
      ],
      "min": [
        -16.83644676208496,
        -10.985450744628906,
        0.13166899979114532
      ],
      "type": "VEC3"
    },
    {
      "bufferView": 2,
      "byteOffset": 131040,
      "componentType": 5126,
      "count": 3080,
      "max": [
        1.0,
        1.0,
        1.0
      ],
      "min": [
        -1.0,
        -1.0,
        -1.0
      ],
      "type": "VEC3"
    },
    {
      "bufferView": 1,
      "byteOffset": 31360,
      "componentType": 5126,
      "count": 3080,
      "max": [
        1.0,
        1.0
      ],
      "min": [
        0.0,
        0.0
      ],
      "type": "VEC2"
    },
    {
      "bufferView": 0,
      "byteOffset": 42960,
      "componentType": 5125,
      "count": 15156,
      "type": "SCALAR"
    },
    {
      "bufferView": 2,
      "byteOffset": 168000,
      "componentType": 5126,
      "count": 3073,
      "max": [
        -9.178680419921875,
        -4.488471984863281,
        10.632573127746582
      ],
      "min": [
        -14.57765007019043,
        -7.977261066436768,
        5.531818866729736
      ],
      "type": "VEC3"
    },
    {
      "bufferView": 2,
      "byteOffset": 204876,
      "componentType": 5126,
      "count": 3073,
      "max": [
        1.0,
        1.0,
        1.0
      ],
      "min": [
        -1.0,
        -1.0,
        -1.0
      ],
      "type": "VEC3"
    },
    {
      "bufferView": 1,
      "byteOffset": 56000,
      "componentType": 5126,
      "count": 3073,
      "max": [
        1.0,
        1.0
      ],
      "min": [
        0.0,
        0.0
      ],
      "type": "VEC2"
    },
    {
      "bufferView": 0,
      "byteOffset": 103584,
      "componentType": 5125,
      "count": 15960,
      "type": "SCALAR"
    },
    {
      "bufferView": 2,
      "byteOffset": 241752,
      "componentType": 5126,
      "count": 1762,
      "max": [
        -11.392213821411133,
        -4.543470859527588,
        17.460277557373047
      ],
      "min": [
        -12.339604377746582,
        -5.490861892700195,
        15.802328109741211
      ],
      "type": "VEC3"
    },
    {
      "bufferView": 2,
      "byteOffset": 262896,
      "componentType": 5126,
      "count": 1762,
      "max": [
        1.0,
        1.0,
        1.0
      ],
      "min": [
        -1.0,
        -1.0,
        -1.0
      ],
      "type": "VEC3"
    },
    {
      "bufferView": 1,
      "byteOffset": 80584,
      "componentType": 5126,
      "count": 1762,
      "max": [
        1.0,
        1.0
      ],
      "min": [
        0.0,
        0.0
      ],
      "type": "VEC2"
    },
    {
      "bufferView": 0,
      "byteOffset": 167424,
      "componentType": 5125,
      "count": 9480,
      "type": "SCALAR"
    }
  ],
  "asset": {
    "extras": {
      "author": "Rafa Andrade (https://sketchfab.com/rafa_andrade)",
      "license": "CC-BY-4.0 (http://creativecommons.org/licenses/by/4.0/)",
      "source": "https://sketchfab.com/3d-models/rocket-36ac04d6203545b1baf56c4cbf89349b",
      "title": "Rocket"
    },
    "generator": "Sketchfab-12.67.0",
    "version": "2.0"
  },
  "bufferViews": [
    {
      "buffer": 0,
      "byteLength": 205344,
      "name": "floatBufferViews",
      "target": 34963
    },
    {
      "buffer": 0,
      "byteLength": 94680,
      "byteOffset": 205344,
      "byteStride": 8,
      "name": "floatBufferViews",
      "target": 34962
    },
    {
      "buffer": 0,
      "byteLength": 284040,
      "byteOffset": 300024,
      "byteStride": 12,
      "name": "floatBufferViews",
      "target": 34962
    }
  ],
  "buffers": [
    {
      "byteLength": 584064,
      "uri": "scene.bin"
    }
  ],
  "materials": [
    {
      "doubleSided": true,
      "name": "blinn1SG",
      "pbrMetallicRoughness": {
        "metallicFactor": 0.0
      }
    },
    {
      "doubleSided": true,
      "name": "blinn2SG",
      "pbrMetallicRoughness": {
        "baseColorFactor": [
          0.62,
          0.0,
          0.0,
          1.0
        ],
        "metallicFactor": 0.0
      }
    },
    {
      "doubleSided": true,
      "name": "blinn3SG",
      "pbrMetallicRoughness": {
        "baseColorFactor": [
          0.38,
          0.48,
          0.5,
          1.0
        ],
        "metallicFactor": 0.0
      }
    },
    {
      "doubleSided": true,
      "name": "blinn5SG",
      "pbrMetallicRoughness": {
        "baseColorFactor": [
          0.0,
          0.12999999999999978,
          0.5799999999999994,
          1.0
        ],
        "metallicFactor": 0.0
      }
    },
    {
      "alphaMode": "BLEND",
      "doubleSided": true,
      "name": "phong1SG",
      "pbrMetallicRoughness": {
        "baseColorFactor": [
          0.21000000000000002,
          0.38000000000000034,
          0.66,
          0.6480564024390244
        ],
        "metallicFactor": 0.0,
        "roughnessFactor": 0.8157689219783937
      }
    },
    {
      "doubleSided": true,
      "name": "phong2SG",
      "pbrMetallicRoughness": {
        "baseColorFactor": [
          0.0,
          0.0,
          0.0,
          1.0
        ],
        "metallicFactor": 0.0,
        "roughnessFactor": 0.8970116428046441
      }
    }
  ],
  "meshes": [
    {
      "name": "Object_0",
      "primitives": [
        {
          "attributes": {
            "NORMAL": 1,
            "POSITION": 0,
            "TEXCOORD_0": 2
          },
          "indices": 3,
          "material": 0,
          "mode": 4
        }
      ]
    },
    {
      "name": "Object_1",
      "primitives": [
        {
          "attributes": {
            "NORMAL": 5,
            "POSITION": 4,
            "TEXCOORD_0": 6
          },
          "indices": 7,
          "material": 1,
          "mode": 4
        }
      ]
    },
    {
      "name": "Object_2",
      "primitives": [
        {
          "attributes": {
            "NORMAL": 9,
            "POSITION": 8,
            "TEXCOORD_0": 10
          },
          "indices": 11,
          "material": 2,
          "mode": 4
        }
      ]
    },
    {
      "name": "Object_3",
      "primitives": [
        {
          "attributes": {
            "NORMAL": 13,
            "POSITION": 12,
            "TEXCOORD_0": 14
          },
          "indices": 15,
          "material": 3,
          "mode": 4
        }
      ]
    },
    {
      "name": "Object_4",
      "primitives": [
        {
          "attributes": {
            "NORMAL": 17,
            "POSITION": 16,
            "TEXCOORD_0": 18
          },
          "indices": 19,
          "material": 4,
          "mode": 4
        }
      ]
    },
    {
      "name": "Object_5",
      "primitives": [
        {
          "attributes": {
            "NORMAL": 21,
            "POSITION": 20,
            "TEXCOORD_0": 22
          },
          "indices": 23,
          "material": 5,
          "mode": 4
        }
      ]
    }
  ],
  "nodes": [
    {
      "children": [
        1
      ],
      "matrix": [
        1.0,
        0.0,
        0.0,
        0.0,
        0.0,
        2.220446049250313e-16,
        -1.0,
        0.0,
        0.0,
        1.0,
        2.220446049250313e-16,
        0.0,
        0.0,
        0.0,
        0.0,
        1.0
      ],
      "name": "Sketchfab_model"
    },
    {
      "children": [
        2,
        3,
        4,
        5,
        6,
        7
      ],
      "name": "rocket.obj.cleaner.materialmerger.gles"
    },
    {
      "mesh": 0,
      "name": "Object_2"
    },
    {
      "mesh": 1,
      "name": "Object_3"
    },
    {
      "mesh": 2,
      "name": "Object_4"
    },
    {
      "mesh": 3,
      "name": "Object_5"
    },
    {
      "mesh": 4,
      "name": "Object_6"
    },
    {
      "mesh": 5,
      "name": "Object_7"
    }
  ],
  "scene": 0,
  "scenes": [
    {
      "name": "Sketchfab_Scene",
      "nodes": [
        0
      ]
    }
  ]
}
